<svg xmlns="http://www.w3.org/2000/svg" width="19.273" height="19.273" viewBox="0 0 19.273 19.273"><defs><style>.a{fill:#7f8082;}</style></defs><path class="a" d="M16.789,1.506H15.057V.6a.6.6,0,0,0-1.2,0v.9H5.421V.6a.6.6,0,0,0-1.2,0v.9H2.484A2.487,2.487,0,0,0,0,3.99v12.8a2.487,2.487,0,0,0,2.484,2.484h14.3a2.487,2.487,0,0,0,2.484-2.484V3.99A2.487,2.487,0,0,0,16.789,1.506Zm-14.3,1.2H4.216v.6a.6.6,0,0,0,1.2,0v-.6h8.432v.6a.6.6,0,0,0,1.2,0v-.6h1.732a1.281,1.281,0,0,1,1.28,1.28v1.43H1.2V3.99A1.281,1.281,0,0,1,2.484,2.71Zm14.3,15.359H2.484a1.281,1.281,0,0,1-1.28-1.28V6.625H18.069V16.789A1.281,1.281,0,0,1,16.789,18.069Z"/></svg>