<svg xmlns="http://www.w3.org/2000/svg" width="23.361" height="18.688" viewBox="0 0 23.361 18.688"><defs><style>.a{opacity:0.264;}.b{fill:#7f8082;}</style></defs><g class="a" transform="translate(0 -47.104)"><g transform="translate(0 47.104)"><g transform="translate(0 0)"><path class="b" d="M20.567,50.354H18.13l-1.346-2.031A2.8,2.8,0,0,0,14.473,47.1H8.887a2.8,2.8,0,0,0-2.311,1.219L5.231,50.354H2.793A2.785,2.785,0,0,0,0,53.147V63a2.785,2.785,0,0,0,2.793,2.793H20.567A2.785,2.785,0,0,0,23.361,63V53.147A2.785,2.785,0,0,0,20.567,50.354ZM11.68,63.507a6.285,6.285,0,1,1,6.3-6.272A6.3,6.3,0,0,1,11.68,63.507Zm8.532-9.217H19.095a.826.826,0,0,1,0-1.65H20.11a.824.824,0,0,1,.863.787A.8.8,0,0,1,20.212,54.29Z" transform="translate(0 -47.104)"/></g></g><g transform="translate(8.176 53.731)"><g transform="translate(0 0)"><path class="b" d="M168.368,180.736a3.491,3.491,0,1,0,3.5,3.479A3.511,3.511,0,0,0,168.368,180.736Z" transform="translate(-164.864 -180.736)"/></g></g></g></svg>