<svg xmlns="http://www.w3.org/2000/svg" width="49" height="49" viewBox="0 0 49 49"><defs><style>.a{fill:#fff;}.b{fill:#f7ad7d;}.c{fill:#f47422;}</style></defs><path class="a" d="M39.813,49H9.188A9.187,9.187,0,0,1,0,39.813V9.188A9.187,9.187,0,0,1,9.188,0H39.813A9.187,9.187,0,0,1,49,9.188V39.813A9.187,9.187,0,0,1,39.813,49Zm0,0"/><path class="b" d="M137.443,128h-7.656A1.788,1.788,0,0,0,128,129.787v4.594a1.789,1.789,0,0,0,1.787,1.787h7.656a1.789,1.789,0,0,0,1.787-1.787v-4.594A1.79,1.79,0,0,0,137.443,128Zm0,0" transform="translate(-115.75 -115.75)"/><path class="c" d="M137.443,234.672h-7.656A1.788,1.788,0,0,0,128,236.457v10.719a1.788,1.788,0,0,0,1.787,1.787h7.656a1.789,1.789,0,0,0,1.787-1.787V236.457A1.789,1.789,0,0,0,137.443,234.672Zm0,0" transform="translate(-115.75 -212.213)"/><path class="b" d="M276.1,298.672h-7.656a1.789,1.789,0,0,0-1.787,1.787v4.594a1.789,1.789,0,0,0,1.787,1.787H276.1a1.79,1.79,0,0,0,1.787-1.788v-4.594A1.788,1.788,0,0,0,276.1,298.672Zm0,0" transform="translate(-241.136 -270.088)"/><path class="c" d="M276.1,128h-7.656a1.789,1.789,0,0,0-1.787,1.787v10.719a1.789,1.789,0,0,0,1.787,1.787H276.1a1.789,1.789,0,0,0,1.787-1.787V129.787A1.788,1.788,0,0,0,276.1,128Zm0,0" transform="translate(-241.136 -115.75)"/></svg>