<svg xmlns="http://www.w3.org/2000/svg" width="13.806" height="13.805" viewBox="0 0 17.806 17.805"><defs><style>.a{fill:#fff;}</style></defs><path class="a" d="M14.1,91.752a.742.742,0,0,0-.742.742v5.935a.743.743,0,0,1-.742.742H2.226a.743.743,0,0,1-.742-.742V88.042a.743.743,0,0,1,.742-.742H8.161a.742.742,0,0,0,0-1.484H2.226A2.228,2.228,0,0,0,0,88.042V98.429a2.228,2.228,0,0,0,2.226,2.226H12.612a2.228,2.228,0,0,0,2.226-2.226V92.494A.741.741,0,0,0,14.1,91.752Zm0,0" transform="translate(0 -82.849)"/><path class="a" d="M182.441,74.132a.375.375,0,0,0-.1.189l-.524,2.623a.371.371,0,0,0,.364.444.353.353,0,0,0,.073-.007l2.623-.525a.369.369,0,0,0,.19-.1l5.87-5.87-2.623-2.623Zm0,0" transform="translate(-175.485 -65.905)"/><path class="a" d="M395.095,1.044a1.856,1.856,0,0,0-2.623,0L391.445,2.07l2.623,2.623,1.027-1.027a1.855,1.855,0,0,0,0-2.623Zm0,0" transform="translate(-377.832 -0.501)"/></svg>