<svg xmlns="http://www.w3.org/2000/svg" width="20.984" height="20.983" viewBox="0 0 24.984 24.983"><defs><style>.a{fill:#f47422;}</style></defs><g transform="translate(0 -0.501)"><path class="a" d="M19.779,94.145a1.041,1.041,0,0,0-1.041,1.041v8.328a1.042,1.042,0,0,1-1.041,1.041H3.123a1.042,1.042,0,0,1-1.041-1.041V88.939A1.042,1.042,0,0,1,3.123,87.9h8.328a1.041,1.041,0,0,0,0-2.082H3.123A3.127,3.127,0,0,0,0,88.939v14.574a3.127,3.127,0,0,0,3.123,3.123H17.7a3.127,3.127,0,0,0,3.123-3.123V95.185A1.04,1.04,0,0,0,19.779,94.145Zm0,0" transform="translate(0 -81.152)"/><path class="a" d="M182.7,76.5a.526.526,0,0,0-.143.265l-.736,3.681a.52.52,0,0,0,.511.622.5.5,0,0,0,.1-.01l3.68-.736a.518.518,0,0,0,.266-.143l8.236-8.236-3.68-3.68Zm0,0" transform="translate(-172.936 -64.454)"/><path class="a" d="M396.566,1.262a2.6,2.6,0,0,0-3.68,0L391.445,2.7l3.68,3.68,1.441-1.441a2.6,2.6,0,0,0,0-3.68Zm0,0" transform="translate(-372.344)"/></g></svg>