<svg xmlns="http://www.w3.org/2000/svg" width="15.465" height="8.007" viewBox="0 0 18.465 11.007"><defs><style>.a{fill:#f47422;}</style></defs><g transform="translate(0 -98.725)"><path class="a" d="M9.232,98.725c-3.528,0-6.727,1.93-9.088,5.065a.731.731,0,0,0,0,.873c2.361,3.139,5.56,5.069,9.088,5.069s6.727-1.93,9.088-5.065a.731.731,0,0,0,0-.873C15.96,100.655,12.76,98.725,9.232,98.725Zm.253,9.379a3.884,3.884,0,1,1,3.622-3.622A3.886,3.886,0,0,1,9.486,108.1Zm-.117-1.79a2.091,2.091,0,1,1,1.953-1.953A2.088,2.088,0,0,1,9.368,106.313Z" transform="translate(0 0)"/></g></svg>