<svg xmlns="http://www.w3.org/2000/svg" width="15.727" height="20.173" viewBox="0 0 20.727 20.173"><defs><style>.a{fill:#fff;}</style></defs><g transform="translate(-4.055 -4.827)"><path class="a" d="M30.412,5.684Z" transform="translate(-2.63 0)"/><path class="a" d="M85.2,82.159H72.219a2.676,2.676,0,0,0-5.075,0H65.119a.852.852,0,0,0,0,1.7h2.026a2.676,2.676,0,0,0,5.075,0H85.2a.852.852,0,1,0,0-1.7ZM69.682,83.984a.973.973,0,1,1,.973-.973A.974.974,0,0,1,69.682,83.984Z" transform="translate(-60.212 -75.289)"/><path class="a" d="M85.2,210.692H83.17a2.676,2.676,0,0,0-5.075,0H65.119a.852.852,0,1,0,0,1.7H78.1a2.676,2.676,0,0,0,5.075,0H85.2a.852.852,0,1,0,0-1.7Zm-4.563,1.825a.973.973,0,1,1,.973-.973A.974.974,0,0,1,80.633,212.517Z" transform="translate(-60.212 -196.522)"/><path class="a" d="M85.2,339.225H75.87a2.676,2.676,0,0,0-5.075,0H65.119a.852.852,0,1,0,0,1.7h5.676a2.676,2.676,0,0,0,5.075,0H85.2a.852.852,0,1,0,0-1.7ZM73.332,341.05a.973.973,0,1,1,.973-.973A.974.974,0,0,1,73.332,341.05Z" transform="translate(-60.212 -317.754)"/></g></svg>