<svg xmlns="http://www.w3.org/2000/svg" width="20" height="20" viewBox="0 0 26.328 24.4"><defs><style>.a{fill:#f47422;}</style></defs><g transform="translate(0 -17.25)"><g transform="translate(0 17.25)"><path class="a" d="M25.574,228.262a.751.751,0,0,0-.754.754v6.861a3.385,3.385,0,0,1-3.38,3.38H4.889a3.385,3.385,0,0,1-3.38-3.38V228.9A.754.754,0,0,0,0,228.9v6.973a4.894,4.894,0,0,0,4.889,4.889h16.55a4.894,4.894,0,0,0,4.889-4.889v-6.861A.755.755,0,0,0,25.574,228.262Z" transform="translate(0 -216.366)"/><path class="a" d="M141.247,35.661a.759.759,0,0,0,.531.223.736.736,0,0,0,.531-.223l4.794-4.794a.755.755,0,0,0-1.067-1.067l-3.5,3.509V18a.754.754,0,1,0-1.509,0v15.3L137.514,29.8a.755.755,0,0,0-1.067,1.067Z" transform="translate(-128.613 -17.25)"/></g></g></svg>