<svg xmlns="http://www.w3.org/2000/svg" width="30" height="15" viewBox="0 0 41.16 28.941"><defs><style>.a{fill:#212529;}</style></defs><g transform="translate(0 -76)"><g transform="translate(0 76)"><path class="a" d="M37.543,76H3.618A3.623,3.623,0,0,0,0,79.618v21.706a3.623,3.623,0,0,0,3.618,3.618H37.543a3.622,3.622,0,0,0,3.618-3.618V79.618A3.621,3.621,0,0,0,37.543,76Zm-.507,2.412-13.9,13.825a3.618,3.618,0,0,1-5.118,0L4.124,78.412ZM2.412,100.832V80.11L12.833,90.477Zm1.714,1.7L14.543,92.178l1.773,1.764a6.029,6.029,0,0,0,8.524,0l1.776-1.766,10.418,10.351Zm34.623-1.7L28.327,90.477,38.748,80.11Z" transform="translate(0 -76)"/></g></g></svg>