<svg xmlns="http://www.w3.org/2000/svg" width="17.474" height="16.866" viewBox="0 0 17.474 16.866"><defs><style>.a{fill:#212529;}</style></defs><g transform="translate(0 -10.648)"><g transform="translate(-0.001 10.648)"><g transform="translate(0 0)"><path class="a" d="M16.871,25.119H9.644a.6.6,0,0,0,0,1.206l7.227-.017a.588.588,0,0,0,.6-.585A.6.6,0,0,0,16.871,25.119ZM8.439,11.854h8.432a.6.6,0,0,0,0-1.2H8.439a.6.6,0,0,0,0,1.206Zm1.016,9.818a.6.6,0,0,0-.855,0l-3.172,3.65V10.648h-1.2v14.7L1.032,21.671a.606.606,0,0,0-.855.858l4.181,4.812a.6.6,0,0,0,.458.172.6.6,0,0,0,.458-.172L9.454,22.53A.607.607,0,0,0,9.455,21.671Zm7.416-7.406H8.439a.6.6,0,1,0,0,1.2h8.432a.6.6,0,1,0,0-1.2Zm0,3.617H8.439a.6.6,0,0,0-.6.6.594.594,0,0,0,.6.593l8.432.01a.6.6,0,0,0,0-1.206Zm0,3.618H12.053a.6.6,0,0,0-.6.6.591.591,0,0,0,.6.59h4.818a.591.591,0,0,0,.6-.59A.6.6,0,0,0,16.871,21.5Z" transform="translate(0.001 -10.648)"/></g></g></g></svg>